G04 Layer: BottomLayer*
G04 EasyEDA v6.4.19.4, 2021-06-26T11:34:46+02:00*
G04 Gerber Generator version 0.2*
G04 Scale: 100 percent, Rotated: No, Reflected: No *
G04 Dimensions in inches *
G04 leading zeros omitted , absolute positions ,3 integer and 6 decimal *
%FSLAX36Y36*%
%MOIN*%

%ADD10C,0.0100*%
%ADD14C,0.0240*%
%ADD18R,0.0700X0.0700*%
%ADD20C,0.0709*%

%LPD*%
D10*
X518000Y2549200D02*
G01*
X746199Y2549200D01*
X813900Y2616999D01*
X813900Y2640000D01*
X518000Y2485000D02*
G01*
X518000Y2549200D01*
X860000Y2640000D02*
G01*
X813900Y2640000D01*
X1158000Y1875799D02*
G01*
X1160000Y1873800D01*
X1160000Y1750000D01*
X1158000Y1940000D02*
G01*
X1158000Y1875799D01*
X663000Y1964200D02*
G01*
X1073800Y2375000D01*
X1400000Y2375000D01*
X663000Y1900000D02*
G01*
X663000Y1964200D01*
X536999Y1900000D02*
G01*
X536999Y2369600D01*
X1268000Y2415799D02*
G01*
X1118299Y2415799D01*
X1097700Y2436399D01*
X1268000Y2480000D02*
G01*
X1268000Y2415799D01*
X391999Y2420799D02*
G01*
X353299Y2382100D01*
X353299Y2316900D01*
X391999Y2485000D02*
G01*
X391999Y2420799D01*
X1400000Y2465200D02*
G01*
X1320900Y2544200D01*
X1265799Y2544200D01*
X1206099Y2603899D01*
X1206099Y2650000D01*
X1160000Y2650000D02*
G01*
X1206099Y2650000D01*
X1031999Y2004200D02*
G01*
X1187899Y2004200D01*
X1246300Y1945900D01*
X1246300Y1841900D01*
X1031999Y1940000D02*
G01*
X1031999Y2004200D01*
G36*
X1291616Y2533150D02*
G01*
X1244372Y2533150D01*
X1244372Y2426849D01*
X1291616Y2426849D01*
G37*
G36*
X415626Y2538150D02*
G01*
X368382Y2538150D01*
X368382Y2431849D01*
X415626Y2431849D01*
G37*
G36*
X541617Y2538150D02*
G01*
X494373Y2538150D01*
X494373Y2431849D01*
X541617Y2431849D01*
G37*
G36*
X639373Y1846849D02*
G01*
X686617Y1846849D01*
X686617Y1953150D01*
X639373Y1953150D01*
G37*
G36*
X513382Y1846849D02*
G01*
X560626Y1846849D01*
X560626Y1953150D01*
X513382Y1953150D01*
G37*
G36*
X1055627Y1993150D02*
G01*
X1008383Y1993150D01*
X1008383Y1886849D01*
X1055627Y1886849D01*
G37*
G36*
X1181616Y1993150D02*
G01*
X1134372Y1993150D01*
X1134372Y1886849D01*
X1181616Y1886849D01*
G37*
D18*
G01*
X560000Y1750000D03*
G01*
X660000Y1740000D03*
G01*
X760000Y1750000D03*
G01*
X860000Y1740000D03*
G01*
X960000Y1750000D03*
G01*
X1060000Y1740000D03*
G01*
X1160000Y1750000D03*
G01*
X1260000Y1740000D03*
G01*
X560000Y2650000D03*
G01*
X660000Y2640000D03*
G01*
X760000Y2650000D03*
G01*
X860000Y2640000D03*
G01*
X960000Y2650000D03*
G01*
X1060000Y2640000D03*
G01*
X1160000Y2650000D03*
G01*
X1260000Y2640000D03*
G36*
X1364250Y2249405D02*
G01*
X1435749Y2249405D01*
X1435749Y2320272D01*
X1364250Y2320272D01*
G37*
D20*
G01*
X1400000Y2375000D03*
G01*
X1400000Y2465160D03*
D14*
G01*
X536999Y2369600D03*
G01*
X1097700Y2436399D03*
G01*
X353299Y2316900D03*
G01*
X1246300Y1841900D03*
M02*
