G04 Layer: BottomSilkLayer*
G04 EasyEDA v6.4.19.4, 2021-06-26T11:34:46+02:00*
G04 Gerber Generator version 0.2*
G04 Scale: 100 percent, Rotated: No, Reflected: No *
G04 Dimensions in inches *
G04 leading zeros omitted , absolute positions ,3 integer and 6 decimal *
%FSLAX36Y36*%
%MOIN*%

%ADD10C,0.0100*%
%ADD24C,0.0060*%

%LPD*%
D24*
X1210987Y2600399D02*
G01*
X1210987Y2557500D01*
X1210987Y2600399D02*
G01*
X1192587Y2600399D01*
X1186487Y2598400D01*
X1184387Y2596300D01*
X1182388Y2592199D01*
X1182388Y2588099D01*
X1184387Y2584000D01*
X1186487Y2581999D01*
X1192587Y2580000D01*
X1210987Y2580000D01*
X1196688Y2580000D02*
G01*
X1182388Y2557500D01*
X1168887Y2592199D02*
G01*
X1164787Y2594299D01*
X1158587Y2600399D01*
X1158587Y2557500D01*
X460988Y2605399D02*
G01*
X460988Y2562500D01*
X460988Y2605399D02*
G01*
X442588Y2605399D01*
X436487Y2603400D01*
X434387Y2601300D01*
X432388Y2597199D01*
X432388Y2593099D01*
X434387Y2589000D01*
X436487Y2586999D01*
X442588Y2585000D01*
X460988Y2585000D01*
X446687Y2585000D02*
G01*
X432388Y2562500D01*
X416788Y2595200D02*
G01*
X416788Y2597199D01*
X414787Y2601300D01*
X412687Y2603400D01*
X408587Y2605399D01*
X400488Y2605399D01*
X396388Y2603400D01*
X394288Y2601300D01*
X392287Y2597199D01*
X392287Y2593099D01*
X394288Y2589000D01*
X398387Y2582899D01*
X418888Y2562500D01*
X390187Y2562500D01*
X594011Y1779600D02*
G01*
X594011Y1822500D01*
X594011Y1779600D02*
G01*
X612411Y1779600D01*
X618512Y1781599D01*
X620612Y1783699D01*
X622611Y1787800D01*
X622611Y1791900D01*
X620612Y1795999D01*
X618512Y1798000D01*
X612411Y1800000D01*
X594011Y1800000D01*
X608312Y1800000D02*
G01*
X622611Y1822500D01*
X640212Y1779600D02*
G01*
X662712Y1779600D01*
X650511Y1795999D01*
X656612Y1795999D01*
X660711Y1798000D01*
X662712Y1800000D01*
X664812Y1806199D01*
X664812Y1810300D01*
X662712Y1816399D01*
X658611Y1820500D01*
X652512Y1822500D01*
X646412Y1822500D01*
X640212Y1820500D01*
X638211Y1818499D01*
X636111Y1814400D01*
X1100987Y2060399D02*
G01*
X1100987Y2017500D01*
X1100987Y2060399D02*
G01*
X1082587Y2060399D01*
X1076487Y2058400D01*
X1074387Y2056300D01*
X1072388Y2052199D01*
X1072388Y2048099D01*
X1074387Y2044000D01*
X1076487Y2041999D01*
X1082587Y2040000D01*
X1100987Y2040000D01*
X1086688Y2040000D02*
G01*
X1072388Y2017500D01*
X1038388Y2060399D02*
G01*
X1058887Y2031799D01*
X1028188Y2031799D01*
X1038388Y2060399D02*
G01*
X1038388Y2017500D01*
D10*
X1303427Y2542993D02*
G01*
X1303427Y2417006D01*
X1169570Y2417006D02*
G01*
X1106576Y2417006D01*
X1169570Y2542993D02*
G01*
X1106576Y2542993D01*
X1240433Y2417006D02*
G01*
X1303427Y2417006D01*
X1240433Y2542993D02*
G01*
X1303427Y2542993D01*
X1106576Y2542993D02*
G01*
X1106576Y2417006D01*
X553427Y2547993D02*
G01*
X553427Y2422006D01*
X419569Y2422006D02*
G01*
X356577Y2422006D01*
X419569Y2547993D02*
G01*
X356577Y2547993D01*
X490434Y2422006D02*
G01*
X553427Y2422006D01*
X490434Y2547993D02*
G01*
X553427Y2547993D01*
X356577Y2547993D02*
G01*
X356577Y2422006D01*
X501572Y1837006D02*
G01*
X501572Y1962993D01*
X635430Y1962993D02*
G01*
X698422Y1962993D01*
X635430Y1837006D02*
G01*
X698422Y1837006D01*
X564565Y1962993D02*
G01*
X501572Y1962993D01*
X564565Y1837006D02*
G01*
X501572Y1837006D01*
X698422Y1837006D02*
G01*
X698422Y1962993D01*
X1193427Y2002993D02*
G01*
X1193427Y1877006D01*
X1059570Y1877006D02*
G01*
X996576Y1877006D01*
X1059570Y2002993D02*
G01*
X996576Y2002993D01*
X1130433Y1877006D02*
G01*
X1193427Y1877006D01*
X1130433Y2002993D02*
G01*
X1193427Y2002993D01*
X996576Y2002993D02*
G01*
X996576Y1877006D01*
M02*
