G04 Layer: TopSolderMaskLayer*
G04 EasyEDA v6.4.19.4, 2021-06-26T11:34:46+02:00*
G04 Gerber Generator version 0.2*
G04 Scale: 100 percent, Rotated: No, Reflected: No *
G04 Dimensions in inches *
G04 leading zeros omitted , absolute positions ,3 integer and 6 decimal *
%FSLAX36Y36*%
%MOIN*%

%ADD25C,0.0867*%
%ADD26C,0.0356*%
%ADD29R,0.0780X0.0780*%
%ADD31C,0.0749*%

%LPD*%
D25*
X1375327Y2005000D02*
G01*
X1316271Y2005000D01*
D26*
X1467858Y2005000D02*
G01*
X1412740Y2005000D01*
X1467821Y2064099D02*
G01*
X1420577Y2064099D01*
X1467821Y1945900D02*
G01*
X1420577Y1945900D01*
G36*
X1391099Y1745399D02*
G01*
X1391099Y1804499D01*
X1446300Y1804499D01*
X1446300Y1745399D01*
G37*
G36*
X1473800Y1745399D02*
G01*
X1473800Y1804499D01*
X1528999Y1804499D01*
X1528999Y1745399D01*
G37*
G36*
X398000Y2005799D02*
G01*
X398000Y2104200D01*
X471999Y2104200D01*
X471999Y2005799D01*
G37*
G36*
X498000Y2005799D02*
G01*
X498000Y2104200D01*
X571999Y2104200D01*
X571999Y2005799D01*
G37*
G36*
X598000Y2005799D02*
G01*
X598000Y2104200D01*
X671999Y2104200D01*
X671999Y2005799D01*
G37*
G36*
X598000Y2385799D02*
G01*
X598000Y2484200D01*
X671999Y2484200D01*
X671999Y2385799D01*
G37*
G36*
X498000Y2385799D02*
G01*
X498000Y2484200D01*
X571999Y2484200D01*
X571999Y2385799D01*
G37*
G36*
X398000Y2385799D02*
G01*
X398000Y2484200D01*
X471999Y2484200D01*
X471999Y2385799D01*
G37*
D29*
G01*
X560000Y1750000D03*
G01*
X660000Y1740000D03*
G01*
X760000Y1750000D03*
G01*
X860000Y1740000D03*
G01*
X960000Y1750000D03*
G01*
X1060000Y1740000D03*
G01*
X1160000Y1750000D03*
G01*
X1260000Y1740000D03*
G01*
X560000Y2650000D03*
G01*
X660000Y2640000D03*
G01*
X760000Y2650000D03*
G01*
X860000Y2640000D03*
G01*
X960000Y2650000D03*
G01*
X1060000Y2640000D03*
G01*
X1160000Y2650000D03*
G01*
X1260000Y2640000D03*
G36*
X1362299Y2247399D02*
G01*
X1362299Y2322300D01*
X1437799Y2322300D01*
X1437799Y2247399D01*
G37*
D31*
G01*
X1400000Y2375000D03*
G01*
X1400000Y2465160D03*
G36*
X1114399Y2422800D02*
G01*
X1114399Y2537100D01*
X1169600Y2537100D01*
X1169600Y2422800D01*
G37*
M02*
