G04 Layer: TopSilkLayer*
G04 EasyEDA v6.4.19.4, 2021-06-26T11:34:46+02:00*
G04 Gerber Generator version 0.2*
G04 Scale: 100 percent, Rotated: No, Reflected: No *
G04 Dimensions in inches *
G04 leading zeros omitted , absolute positions ,3 integer and 6 decimal *
%FSLAX36Y36*%
%MOIN*%

%ADD10C,0.0100*%
%ADD21C,0.0079*%
%ADD22C,0.0079*%
%ADD23C,0.0098*%
%ADD24C,0.0060*%

%LPD*%
D24*
X1459350Y1880450D02*
G01*
X1459350Y1837550D01*
X1459350Y1837550D02*
G01*
X1483850Y1837550D01*
X1497349Y1880450D02*
G01*
X1497349Y1837550D01*
X1497349Y1880450D02*
G01*
X1523950Y1880450D01*
X1497349Y1860050D02*
G01*
X1513750Y1860050D01*
X1497349Y1837550D02*
G01*
X1523950Y1837550D01*
X1537449Y1880450D02*
G01*
X1537449Y1837550D01*
X1537449Y1880450D02*
G01*
X1551850Y1880450D01*
X1557950Y1878449D01*
X1562049Y1874349D01*
X1564049Y1870250D01*
X1566149Y1864050D01*
X1566149Y1853850D01*
X1564049Y1847750D01*
X1562049Y1843649D01*
X1557950Y1839549D01*
X1551850Y1837550D01*
X1537449Y1837550D01*
X1579650Y1872249D02*
G01*
X1583750Y1874349D01*
X1589849Y1880450D01*
X1589849Y1837550D01*
X525000Y2544099D02*
G01*
X525000Y2513400D01*
X526999Y2507300D01*
X531100Y2503200D01*
X537300Y2501199D01*
X541399Y2501199D01*
X547500Y2503200D01*
X551599Y2507300D01*
X553600Y2513400D01*
X553600Y2544099D01*
X567100Y2535900D02*
G01*
X571199Y2538000D01*
X577399Y2544099D01*
X577399Y2501199D01*
X1384200Y2155399D02*
G01*
X1384200Y2124699D01*
X1386199Y2118600D01*
X1390299Y2114499D01*
X1396499Y2112500D01*
X1400600Y2112500D01*
X1406700Y2114499D01*
X1410799Y2118600D01*
X1412799Y2124699D01*
X1412799Y2155399D01*
X1428400Y2145200D02*
G01*
X1428400Y2147199D01*
X1430399Y2151300D01*
X1432500Y2153400D01*
X1436599Y2155399D01*
X1444700Y2155399D01*
X1448800Y2153400D01*
X1450900Y2151300D01*
X1452899Y2147199D01*
X1452899Y2143099D01*
X1450900Y2139000D01*
X1446800Y2132899D01*
X1426300Y2112500D01*
X1455000Y2112500D01*
X930500Y1850399D02*
G01*
X930500Y1817699D01*
X928400Y1811500D01*
X926400Y1809499D01*
X922299Y1807500D01*
X918199Y1807500D01*
X914099Y1809499D01*
X911999Y1811500D01*
X910000Y1817699D01*
X910000Y1821799D01*
X943999Y1850399D02*
G01*
X943999Y1807500D01*
X943999Y1850399D02*
G01*
X962399Y1850399D01*
X968500Y1848400D01*
X970500Y1846300D01*
X972600Y1842199D01*
X972600Y1836100D01*
X970500Y1831999D01*
X968500Y1830000D01*
X962399Y1827899D01*
X943999Y1827899D01*
X986099Y1842199D02*
G01*
X990200Y1844299D01*
X996300Y1850399D01*
X996300Y1807500D01*
X930500Y2750399D02*
G01*
X930500Y2717700D01*
X928400Y2711500D01*
X926400Y2709499D01*
X922299Y2707500D01*
X918199Y2707500D01*
X914099Y2709499D01*
X911999Y2711500D01*
X910000Y2717700D01*
X910000Y2721799D01*
X943999Y2750399D02*
G01*
X943999Y2707500D01*
X943999Y2750399D02*
G01*
X962399Y2750399D01*
X968500Y2748400D01*
X970500Y2746300D01*
X972600Y2742199D01*
X972600Y2736100D01*
X970500Y2731999D01*
X968500Y2730000D01*
X962399Y2727899D01*
X943999Y2727899D01*
X988100Y2740200D02*
G01*
X988100Y2742199D01*
X990200Y2746300D01*
X992200Y2748400D01*
X996300Y2750399D01*
X1004499Y2750399D01*
X1008599Y2748400D01*
X1010600Y2746300D01*
X1012700Y2742199D01*
X1012700Y2738099D01*
X1010600Y2734000D01*
X1006499Y2727899D01*
X986099Y2707500D01*
X1014700Y2707500D01*
X1515399Y2362700D02*
G01*
X1513400Y2366799D01*
X1509300Y2370900D01*
X1505200Y2373000D01*
X1498999Y2375000D01*
X1488800Y2375000D01*
X1482700Y2373000D01*
X1478599Y2370900D01*
X1474499Y2366799D01*
X1472500Y2362700D01*
X1472500Y2354499D01*
X1474499Y2350500D01*
X1478599Y2346399D01*
X1482700Y2344299D01*
X1488800Y2342300D01*
X1498999Y2342300D01*
X1505200Y2344299D01*
X1509300Y2346399D01*
X1513400Y2350500D01*
X1515399Y2354499D01*
X1515399Y2362700D01*
X1480600Y2356599D02*
G01*
X1468400Y2344299D01*
X1507200Y2328800D02*
G01*
X1509300Y2324699D01*
X1515399Y2318499D01*
X1472500Y2318499D01*
G36*
X1456060Y1790740D02*
G01*
X1456060Y1759259D01*
X1467880Y1775000D01*
G37*
D21*
X1475748Y1814369D02*
G01*
X1538739Y1814369D01*
X1538739Y1735630D01*
X1475748Y1735630D01*
X1444251Y1735630D02*
G01*
X1381260Y1735630D01*
X1381260Y1814369D01*
X1444251Y1814369D01*
X1538739Y1814369D02*
G01*
X1538739Y1814369D01*
X1550550Y1802559D01*
X1550550Y1747440D01*
X1550550Y1747440D01*
X1538739Y1735630D01*
D10*
X702323Y2372953D02*
G01*
X702323Y2117046D01*
X702323Y2117046D02*
G01*
X367676Y2117046D01*
X367676Y2372953D02*
G01*
X367676Y2275000D01*
X367676Y2117046D02*
G01*
X367676Y2215000D01*
X367676Y2375592D02*
G01*
X702323Y2375592D01*
X1322150Y2060120D02*
G01*
X1322150Y2095549D01*
X1424520Y2095549D01*
X1424520Y1914450D02*
G01*
X1322150Y1914450D01*
X1322150Y1949879D01*
X510000Y1795000D02*
G01*
X1310000Y1795000D01*
X1310000Y1795000D02*
G01*
X1310000Y1695000D01*
X1310000Y1695000D02*
G01*
X510000Y1695000D01*
X510000Y1695000D02*
G01*
X510000Y1795000D01*
X510000Y2695000D02*
G01*
X1310000Y2695000D01*
X1310000Y2695000D02*
G01*
X1310000Y2595000D01*
X1310000Y2595000D02*
G01*
X510000Y2595000D01*
X510000Y2595000D02*
G01*
X510000Y2695000D01*
D22*
X1450681Y2225394D02*
G01*
X1450681Y2524605D01*
X1344381Y2225394D02*
G01*
X1450681Y2225394D01*
X1344381Y2225394D02*
G01*
X1344381Y2524605D01*
X1450681Y2524605D02*
G01*
X1344381Y2524605D01*
X1400119Y2524605D02*
G01*
X1400119Y2512800D01*
X1400119Y2236199D02*
G01*
X1400119Y2225394D01*
D10*
G75*
G01*
X367677Y2275000D02*
G02*
X367700Y2215000I11J-30000D01*
D23*
G75*
G01*
X1333071Y2280512D02*
G03*
X1333071Y2280412I-4900J-50D01*
D10*
G75*
G01
X385000Y2065000D02*
G03X385000Y2065000I-10000J0D01*
M02*
