G04 Layer: BottomSolderMaskLayer*
G04 EasyEDA v6.4.19.4, 2021-06-26T11:34:46+02:00*
G04 Gerber Generator version 0.2*
G04 Scale: 100 percent, Rotated: No, Reflected: No *
G04 Dimensions in inches *
G04 leading zeros omitted , absolute positions ,3 integer and 6 decimal *
%FSLAX36Y36*%
%MOIN*%

%ADD29R,0.0780X0.0780*%
%ADD31C,0.0749*%

%LPD*%
D29*
G01*
X560000Y1750000D03*
G01*
X660000Y1740000D03*
G01*
X760000Y1750000D03*
G01*
X860000Y1740000D03*
G01*
X960000Y1750000D03*
G01*
X1060000Y1740000D03*
G01*
X1160000Y1750000D03*
G01*
X1260000Y1740000D03*
G01*
X560000Y2650000D03*
G01*
X660000Y2640000D03*
G01*
X760000Y2650000D03*
G01*
X860000Y2640000D03*
G01*
X960000Y2650000D03*
G01*
X1060000Y2640000D03*
G01*
X1160000Y2650000D03*
G01*
X1260000Y2640000D03*
G36*
X1362299Y2247399D02*
G01*
X1362299Y2322300D01*
X1437799Y2322300D01*
X1437799Y2247399D01*
G37*
D31*
G01*
X1400000Y2375000D03*
G01*
X1400000Y2465160D03*
G36*
X1240399Y2422800D02*
G01*
X1240399Y2537100D01*
X1295600Y2537100D01*
X1295600Y2422800D01*
G37*
G36*
X364400Y2427800D02*
G01*
X364400Y2542100D01*
X419600Y2542100D01*
X419600Y2427800D01*
G37*
G36*
X490399Y2427800D02*
G01*
X490399Y2542100D01*
X545599Y2542100D01*
X545599Y2427800D01*
G37*
G36*
X635399Y1842800D02*
G01*
X635399Y1957100D01*
X690599Y1957100D01*
X690599Y1842800D01*
G37*
G36*
X509400Y1842800D02*
G01*
X509400Y1957100D01*
X564600Y1957100D01*
X564600Y1842800D01*
G37*
G36*
X1004399Y1882800D02*
G01*
X1004399Y1997100D01*
X1059600Y1997100D01*
X1059600Y1882800D01*
G37*
G36*
X1130399Y1882800D02*
G01*
X1130399Y1997100D01*
X1185600Y1997100D01*
X1185600Y1882800D01*
G37*
M02*
