M48
INCH,LZ
;FILE_FORMAT=2:4
;TYPE=PLATED
;Layer: Drill PTH
;EasyEDA v6.4.19.4, 2021-06-26T11:34:46+02:00
;10
;Gerber Generator version 0.2
;Holesize 1 = 0.0120 inch
T01C0.0120
;Holesize 2 = 0.0400 inch
T02C0.0400
;Holesize 3 = 0.0430 inch
T03C0.0430
%
G05
G90
T01
X005370Y023696
X010977Y024364
X003533Y023169
X012463Y018419
T02
X005600Y017500
X006600Y017400
X007600Y017500
X008600Y017400
X009600Y017500
X010600Y017400
X011600Y017500
X012600Y017400
X005600Y026500
X006600Y026400
X007600Y026500
X008600Y026400
X009600Y026500
X010600Y026400
X011600Y026500
X012600Y026400
T03
X014000Y022848
X014000Y023750
X014000Y024652
M30
